
<svg viewBox="0 0 64 62" fill="none">
  <path d="M31.9798 61.8462C49.6417 61.8462 63.9596 48.0014 63.9596 30.9231C63.9596 13.8447 49.6417 0 31.9798 0C14.3178 0 0 13.8447 0 30.9231C0 48.0014 14.3178 61.8462 31.9798 61.8462Z" fill="#0971BD"/>
  <path fill-rule="evenodd" clip-rule="evenodd" d="M17.0566 22.1297C17.0566 22.1297 29.9279 29.1874 32.4261 29.1874C35.0446 29.1874 47.7764 22.2645 47.7764 22.2645L47.7969 21.0276C47.7969 19.662 46.6507 18.5537 45.2347 18.5537H19.6176C18.2028 18.5537 17.0566 19.662 17.0566 21.0276V22.1297ZM47.7764 25.9752C47.7764 25.9752 35.1649 32.589 32.4261 32.589C29.9279 32.589 17.0758 25.9752 17.0771 25.9752L17.0566 40.8183C17.0566 42.1839 18.2041 43.2922 19.6176 43.2922H45.2347C46.6507 43.2922 47.7969 42.1839 47.7969 40.8183L47.7764 25.9752Z" fill="white"/>
</svg>