
<svg viewBox="0 0 64 63" fill="none">
  <path d="M0 31.5998C0 14.5215 14.3178 0.676758 31.9798 0.676758C49.6417 0.676758 63.9596 14.5215 63.9596 31.5998C63.9596 48.6782 49.6417 62.5229 31.9798 62.5229C14.3178 62.5229 0 48.6782 0 31.5998Z" fill="#0077B5"/>
  <path fill-rule="evenodd" clip-rule="evenodd" d="M23.077 19.7751C23.077 21.7969 21.5032 23.4146 18.9762 23.4146H18.9299C16.4968 23.4146 14.9238 21.7969 14.9238 19.7751C14.9238 17.7106 16.5447 16.1382 19.0239 16.1382C21.5032 16.1382 23.03 17.7106 23.077 19.7751ZM22.5997 26.2885V47.3442H15.3524V26.2885H22.5997ZM48.736 47.3441L48.7363 35.2715C48.7363 28.8041 45.161 25.7941 40.3919 25.7941C36.5441 25.7941 34.8213 27.8377 33.8594 29.2714V26.289H26.6112C26.7068 28.2648 26.6112 47.3447 26.6112 47.3447H33.8594V35.5855C33.8594 34.9562 33.9065 34.3285 34.0981 33.8779C34.6219 32.6207 35.8145 31.3191 37.8167 31.3191C40.4402 31.3191 41.489 33.2499 41.489 36.0794V47.3441H48.736Z" fill="white"/>
</svg>