
<svg xmlns="http://www.w3.org/2000/svg"  viewBox="0 0 64 62" fill="none">
  <path d="M0 30.9231C0 13.8447 14.3178 0 31.9798 0C49.6417 0 63.9596 13.8447 63.9596 30.9231C63.9596 48.0014 49.6417 61.8462 31.9798 61.8462C14.3178 61.8462 0 48.0014 0 30.9231Z" fill="#6FD454"/>
  <path d="M22.6146 15.5245C23.003 15.493 23.3358 15.5845 23.5512 15.9284C24.0342 16.6857 24.5204 17.4431 24.9805 18.2193C25.5124 19.1155 26.0019 20.0369 26.5241 20.9425C26.6578 21.1854 26.8439 21.4063 27.0005 21.6398C27.1441 21.8607 27.2811 22.0879 27.4149 22.3088C27.689 22.8105 27.676 23.3154 27.2681 23.7161C26.6872 24.2904 26.0476 24.8237 25.4308 25.3696C24.9152 25.8271 24.3801 26.2658 23.8775 26.7328C23.4859 27.0988 23.3848 27.5563 23.6491 28.0391C24.057 28.7775 24.4616 29.5159 24.9087 30.2385C26.5665 32.9112 28.6844 35.1831 31.3603 36.9344C32.3915 37.6128 33.4651 38.2345 34.5485 38.8277C35.5699 39.3862 35.968 39.2915 36.761 38.4364C37.4985 37.6444 38.2099 36.8397 38.9442 36.0414C39.1204 35.8489 39.3325 35.6785 39.5381 35.5144C39.9558 35.1736 40.4126 35.1358 40.8924 35.3693C41.0261 35.4324 41.1697 35.4892 41.2872 35.5712C42.5599 36.4516 43.9827 37.0732 45.3272 37.8211C46.0484 38.2218 46.75 38.651 47.4581 39.0612C47.8399 39.2789 47.9933 39.5976 47.9672 40.0362C47.8954 41.27 47.6833 42.4817 46.9425 43.523C46.6325 43.9553 46.1919 44.334 45.7481 44.6401C44.5179 45.4731 43.144 45.9874 41.6821 46.303C40.3539 46.5901 39.029 46.486 37.7563 46.101C35.2991 45.369 32.8777 44.5296 30.6489 43.258C28.6256 42.0999 26.7851 40.702 25.0817 39.1401C22.9246 37.1553 20.9993 34.9906 19.4427 32.5262C18.4278 30.9264 17.7034 29.2035 17.0474 27.4459C16.6493 26.3857 16.2577 25.3349 16.0815 24.2115C15.8792 22.9399 16.0195 21.7156 16.4405 20.5102C16.819 19.4215 17.2922 18.3802 18.0068 17.4494C18.5681 16.7268 19.2697 16.1967 20.1769 15.96C20.9047 15.7738 21.6389 15.6255 22.3699 15.4614C22.4645 15.534 22.5396 15.534 22.6146 15.5245Z" fill="white"/>
</svg>