<svg width="418" height="131" viewBox="0 0 418 131" fill="none" xmlns="http://www.w3.org/2000/svg">
<path d="M101.112 101.523C102.271 101.515 103.419 101.752 104.478 102.219C105.497 102.671 106.428 103.295 107.232 104.065C108.037 104.848 108.682 105.779 109.129 106.808C109.593 107.88 109.828 109.036 109.82 110.203C109.809 111.369 109.564 112.52 109.099 113.59C108.633 114.659 107.957 115.624 107.11 116.428C95.4537 125.938 80.8264 131.091 65.7589 130.995C47.5634 130.995 32.0548 124.61 19.2329 111.84C6.41095 99.0704 0 83.6248 0 65.5034C0 47.44 6.41095 32.0206 19.2329 19.2451C32.0548 6.46953 47.5634 0.0556408 65.7589 0.00340103C81.3317 0.00340103 95.3892 5.10839 107.931 15.3184C108.712 16.0988 109.32 17.0335 109.716 18.0622C110.112 19.0909 110.287 20.1909 110.231 21.2911C110.246 22.4697 110.023 23.6393 109.575 24.7302C109.145 25.7553 108.519 26.6869 107.73 27.4728C106.931 28.2681 105.98 28.8957 104.933 29.3186C103.358 29.9644 101.628 30.1378 99.9549 29.8176C98.2822 29.4974 96.7399 28.6976 95.5174 27.5164C91.384 24.2551 86.7295 21.7092 81.7484 19.9851C76.6059 18.2178 71.1989 17.3345 65.7589 17.3731C59.4091 17.3651 53.1201 18.6048 47.2521 21.0211C41.3841 23.4375 36.0524 26.9831 31.5624 31.4548C27.0725 35.9265 23.5124 41.2365 21.0862 47.0806C18.6599 52.9247 17.4152 59.1881 17.4232 65.5121C17.4232 78.8623 22.1091 90.2157 31.4807 99.5724C39.9336 107.94 51.1813 112.919 63.0819 113.561C74.9824 114.203 86.7044 110.464 96.0157 103.055C97.5242 102.052 99.2984 101.518 101.112 101.523Z" fill="white"/>
<path d="M213.896 85.1368C213.896 97.9066 209.402 108.712 200.415 117.552C191.317 126.502 180.465 130.977 167.859 130.977C161.761 131.061 155.706 129.937 150.048 127.671C144.389 125.404 139.239 122.041 134.897 117.775C130.555 113.51 127.107 108.428 124.754 102.824C122.4 97.2203 121.188 91.2067 121.188 85.1325C121.188 79.0583 122.4 73.0447 124.754 67.441C127.107 61.8372 130.555 56.755 134.897 52.4897C139.239 48.2243 144.389 44.8607 150.048 42.5943C155.706 40.328 161.761 39.204 167.859 39.2877C180.465 39.2877 191.317 43.7629 200.415 52.7134C204.728 56.9285 208.149 61.9612 210.477 67.5146C212.737 73.1172 213.897 79.0992 213.896 85.1368ZM167.859 56.405C163.952 56.3722 160.081 57.1521 156.494 58.6948C149.611 61.6391 144.145 67.1299 141.248 74.0098C139.761 77.534 138.995 81.3184 138.995 85.1412C138.995 88.964 139.761 92.7484 141.248 96.2726C144.145 103.153 149.611 108.643 156.494 111.588C160.07 113.099 163.914 113.877 167.798 113.877C171.682 113.877 175.526 113.099 179.102 111.588C182.526 110.114 185.636 108.001 188.264 105.362C190.875 102.732 192.969 99.6367 194.436 96.2378C195.93 92.7291 196.7 88.9568 196.7 85.1456C196.7 81.3343 195.93 77.562 194.436 74.0533C192.971 70.6507 190.877 67.5525 188.264 64.9201C185.636 62.2819 182.526 60.1688 179.102 58.6948C175.554 57.1629 171.726 56.3831 167.859 56.405Z" fill="white"/>
<path d="M273.08 39.3052C283.587 39.1696 293.805 42.7342 301.93 49.3701V8.51852C301.897 7.39149 302.096 6.2697 302.514 5.22192C302.932 4.17413 303.561 3.22242 304.361 2.42515C305.162 1.62789 306.117 1.00186 307.17 0.585437C308.222 0.16901 309.348 -0.0290429 310.48 0.00343619C311.61 -0.0188711 312.734 0.183713 313.784 0.599334C314.835 1.01495 315.792 1.63525 316.599 2.42388C317.42 3.2097 318.066 4.15796 318.497 5.20762C318.928 6.25729 319.133 7.38511 319.099 8.51852V85.1369C319.099 97.9066 314.606 108.712 305.619 117.552C296.527 126.502 285.678 130.977 273.072 130.977C266.973 131.061 260.919 129.937 255.26 127.671C249.602 125.404 244.452 122.041 240.11 117.775C235.767 113.51 232.319 108.428 229.966 102.824C227.613 97.2203 226.401 91.2067 226.401 85.1325C226.401 79.0584 227.613 73.0448 229.966 67.441C232.319 61.8373 235.767 56.7551 240.11 52.4897C244.452 48.2243 249.602 44.8607 255.26 42.5944C260.919 40.328 266.973 39.2041 273.072 39.2878L273.08 39.3052ZM301.93 85.1543C301.967 81.3429 301.207 77.5656 299.7 74.062C296.768 67.1687 291.278 61.6675 284.375 58.7036C280.8 57.1925 276.956 56.4138 273.072 56.4138C269.188 56.4138 265.343 57.1925 261.768 58.7036C254.882 61.6432 249.414 67.1355 246.522 74.0185C245.027 77.5409 244.257 81.326 244.257 85.1499C244.257 88.9739 245.027 92.7589 246.522 96.2814C249.414 103.164 254.882 108.657 261.768 111.596C265.343 113.107 269.188 113.886 273.072 113.886C276.956 113.886 280.8 113.107 284.375 111.596C287.802 110.12 290.914 108.008 293.546 105.371C296.139 102.736 298.214 99.6413 299.665 96.2465C301.186 92.7399 301.957 88.9564 301.93 85.1369V85.1543Z" fill="white"/>
<path d="M409.371 130.995C408.236 131.036 407.104 130.838 406.049 130.415C404.995 129.992 404.042 129.353 403.252 128.539C401.679 126.945 400.795 124.802 400.787 122.567C397.202 125.404 393.137 127.58 388.784 128.992C384.34 130.364 379.71 131.039 375.058 130.995C369.345 131.028 363.687 129.871 358.448 127.599C348.167 123.197 339.972 115.036 335.552 104.796C333.271 99.579 332.11 93.9444 332.143 88.2538V47.8202C332.125 46.7005 332.337 45.5889 332.767 44.5541C333.197 43.5193 333.836 42.5833 334.643 41.804C335.439 40.9947 336.392 40.3557 337.444 39.926C338.496 39.4963 339.626 39.2851 340.763 39.3051C343.029 39.3097 345.201 40.2084 346.803 41.8042C348.406 43.4001 349.308 45.5633 349.312 47.8202V88.2625C349.29 91.6933 349.974 95.0923 351.323 98.249C353.929 104.396 358.841 109.288 365.013 111.884C368.176 113.205 371.572 113.886 375.001 113.886C378.431 113.886 381.827 113.205 384.989 111.884C391.194 109.264 396.145 104.361 398.811 98.1968C400.163 95.0561 400.847 91.6708 400.822 88.2538V47.8202C400.805 46.6999 401.019 45.5881 401.451 44.5533C401.882 43.5186 402.522 42.5829 403.331 41.804C404.125 40.993 405.078 40.3529 406.13 39.9231C407.183 39.4933 408.313 39.283 409.45 39.3051C411.716 39.3097 413.888 40.2084 415.491 41.8042C417.093 43.4001 417.995 45.5633 418 47.8202V122.48C418 123.604 417.776 124.718 417.342 125.756C416.907 126.795 416.27 127.737 415.468 128.529C414.666 129.32 413.714 129.946 412.668 130.369C411.621 130.792 410.501 131.005 409.371 130.995ZM391.494 14.6654L375.058 30.9555C374.279 31.7172 373.353 32.313 372.336 32.7067C371.318 33.1003 370.231 33.2836 369.14 33.2453C368.007 33.2829 366.878 33.0884 365.824 32.6737C364.769 32.2591 363.812 31.6333 363.01 30.8349C362.209 30.0366 361.58 29.0829 361.164 28.0328C360.748 26.9827 360.552 25.8586 360.59 24.7302C360.502 22.6169 361.238 20.5516 362.644 18.9664L379.089 2.66763C379.885 1.85738 380.838 1.21541 381.889 0.780083C382.941 0.34476 384.069 0.125016 385.208 0.133994C386.347 0.101821 387.479 0.307564 388.534 0.737942C389.587 1.16832 390.539 1.81378 391.328 2.63279C392.119 3.4364 392.741 4.38963 393.157 5.43633C393.573 6.48303 393.774 7.60204 393.749 8.72744C393.793 9.81731 393.615 10.9048 393.228 11.9249C392.84 12.9451 392.251 13.8771 391.494 14.6654Z" fill="white"/>
</svg>
